# File created by Blade
# Date/Time:  Tue Jan 27 18:09:10 2015
# Frame Rate: 120.000 fps
#------------------------------------------------------
:FULLY-SPECIFIED
:DEGREES
2054
root -1.333244 31.855482 -6.785879 6.163929 13.430261 3.898701
Spine -7.669445 -1.405006 -4.280764
Head -4.035123 -39.326455 2.557696
LeftShoulder -10.288541 14.978304 3.381548
LeftArm 29.279781 44.577911 -63.341956
LeftForeArm -2.381871 -0.000000 15.449803
LeftHand -10.547079 -0.000000 -6.764315
LeftHandThumb1 -26.253704 0.000000 33.147579
RightShoulder 3.704072 23.902455 -25.435343
RightArm 63.903274 59.351530 110.943284
RightForeArm 27.128224 -0.000000 105.979348
RightHand -6.702423 0.000000 -3.637588
RightHandThumb1 -24.326973 -0.000000 -32.862282
LeftUpLeg -2.927750 -4.905718 -1.207307
LeftLeg 1.441727 -0.000000 -0.000000
LeftFoot -16.266314 14.688089 -24.002760
LeftToeBase 8.609223 -0.000000 -0.000000
RightUpLeg 1.858827 -8.663837 -3.953312
RightLeg -3.431051 -0.000000 0.000000
RightFoot -15.914455 -15.616298 10.381624
RightToeBase 5.216878 -0.000000 -0.000000
2055
root -1.331095 31.856146 -6.779491 6.172312 13.474309 3.900534
Spine -7.681503 -1.371066 -4.258785
Head -4.026610 -39.209700 2.364296
LeftShoulder -10.310171 14.961342 3.341223
LeftArm 29.182722 44.500842 -63.429581
LeftForeArm -2.394270 -0.000000 15.456101
LeftHand -10.539584 -0.000000 -6.778845
LeftHandThumb1 -26.253704 0.000000 33.147579
RightShoulder 3.670105 23.985908 -25.351402
RightArm 65.702469 59.877718 113.453234
RightForeArm 26.876059 -0.000000 106.633819
RightHand -6.833906 0.000000 -5.131780
RightHandThumb1 -24.326973 -0.000000 -32.862282
LeftUpLeg -2.921843 -4.940692 -1.204412
LeftLeg 1.431624 -0.000000 -0.000000
LeftFoot -16.264147 14.674197 -24.014356
LeftToeBase 8.640251 -0.000000 -0.000000
RightUpLeg 1.881359 -8.663069 -3.954880
RightLeg -3.453323 -0.000000 0.000000
RightFoot -15.910009 -15.647375 10.399348
RightToeBase 5.172821 -0.000000 -0.000000
2056
root -1.330340 31.856753 -6.772997 6.174111 13.536401 3.895965
Spine -7.683888 -1.338757 -4.229258
Head -4.098527 -39.091309 2.244491
LeftShoulder -10.303650 14.946365 3.316503
LeftArm 29.129878 44.489762 -63.464821
LeftForeArm -2.465667 0.000000 15.459548
LeftHand -10.543441 0.000000 -6.712500
LeftHandThumb1 -26.253704 0.000000 33.147579
RightShoulder 3.597947 24.003738 -25.287402
RightArm 67.532636 60.344113 115.941047
RightForeArm 26.864704 -0.000000 107.231622
RightHand -6.891843 -0.000000 -6.136821
RightHandThumb1 -24.326973 -0.000000 -32.862282
LeftUpLeg -2.917597 -4.981888 -1.193285
LeftLeg 1.427823 -0.000000 -0.000000
LeftFoot -16.259600 14.651084 -24.020904
LeftToeBase 8.667104 -0.000000 -0.000000
RightUpLeg 1.888376 -8.764263 -3.946025
RightLeg -3.424154 -0.000000 0.000000
RightFoot -15.923717 -15.603423 10.408011
RightToeBase 5.226691 -0.000000 -0.000000
2057
root -1.327189 31.857215 -6.766599 6.182302 13.584234 3.904785
Spine -7.704691 -1.297158 -4.211302
Head -4.182001 -39.070354 2.137822
LeftShoulder -10.285938 14.974172 3.301734
LeftArm 29.105422 44.462787 -63.498420
LeftForeArm -2.522184 -0.000000 15.465499
LeftHand -10.567595 -0.000000 -6.611074
LeftHandThumb1 -26.253704 0.000000 33.147579
RightShoulder 3.541462 24.054306 -25.204038
RightArm 68.915934 60.788386 117.915530
RightForeArm 26.536956 -0.000000 107.881858
RightHand -7.191204 -0.000000 -7.638271
RightHandThumb1 -24.326973 -0.000000 -32.862282
LeftUpLeg -2.910981 -5.009030 -1.199925
LeftLeg 1.417179 -0.000000 -0.000000
LeftFoot -16.230042 14.646199 -23.981749
LeftToeBase 8.578980 -0.000000 -0.000000
RightUpLeg 1.888497 -8.864027 -3.954790
RightLeg -3.391001 -0.000000 0.000000
RightFoot -15.941572 -15.546307 10.402560
RightToeBase 5.172110 -0.000000 -0.000000
2058
root -1.324950 31.858827 -6.760874 6.194585 13.634198 3.913563
Spine -7.706319 -1.267220 -4.211744
Head -4.230576 -38.894257 2.010369
LeftShoulder -10.289854 14.939941 3.301670
LeftArm 29.032806 44.455003 -63.565683
LeftForeArm -2.564601 -0.000000 15.467989
LeftHand -10.576149 -0.000000 -6.650327
LeftHandThumb1 -26.253704 0.000000 33.147579
RightShoulder 3.425333 24.105353 -25.096417
RightArm 70.067088 61.152579 119.587998
RightForeArm 26.147340 0.000000 108.475652
RightHand -7.477882 -0.000000 -9.236418
RightHandThumb1 -24.326973 -0.000000 -32.862282
LeftUpLeg -2.908034 -5.043096 -1.206150
LeftLeg 1.404331 -0.000000 -0.000000
LeftFoot -16.206856 14.634408 -23.991157
LeftToeBase 8.603262 -0.000000 -0.000000
RightUpLeg 1.881705 -8.937714 -3.958966
RightLeg -3.356025 -0.000000 0.000000
RightFoot -15.950768 -15.531431 10.400398
RightToeBase 5.166532 -0.000000 -0.000000
2059
root -1.325356 31.859644 -6.755191 6.207072 13.688759 3.903770
Spine -7.734302 -1.271774 -4.177170
Head -4.258194 -38.752838 1.849086
LeftShoulder -10.282611 14.922501 3.303584
LeftArm 28.925842 44.427700 -63.663807
LeftForeArm -2.610416 -0.000000 15.476972
LeftHand -10.619444 0.000000 -6.731691
LeftHandThumb1 -26.253704 0.000000 33.147579
RightShoulder 3.367654 24.149950 -24.993549
RightArm 70.743997 61.478896 120.721996
RightForeArm 25.181968 0.000000 109.160552
RightHand -8.148969 -0.000000 -11.599057
RightHandThumb1 -24.326973 -0.000000 -32.862282
LeftUpLeg -2.920091 -5.059711 -1.186782
LeftLeg 1.407844 -0.000000 -0.000000
LeftFoot -16.205629 14.587483 -24.009323
LeftToeBase 8.636561 -0.000000 -0.000000
RightUpLeg 1.926467 -8.817726 -3.945819
RightLeg -3.435976 -0.000000 0.000000
RightFoot -15.936337 -15.650456 10.578734
RightToeBase 5.065343 -0.000000 -0.000000
